<svg xmlns="http://www.w3.org/2000/svg" xmlns:xlink="http://www.w3.org/1999/xlink" viewBox="0 0 1920 1080"><defs><style>.cls-1{fill:url(#Dégradé_sans_nom_8);}.cls-2{fill:#d489b6;}.cls-3{fill:#efcde2;}.cls-19,.cls-27,.cls-4{fill:#acdcda;}.cls-5{fill:#4c938e;}.cls-6{fill:#d1d1d1;}.cls-7{fill:#2e605b;}.cls-8{fill:url(#Dégradé_sans_nom_54);}.cls-9{fill:#d1b4c7;}.cls-10{fill:#7c7c7c;}.cls-11{fill:#fff;}.cls-12{fill:#303030;}.cls-12,.cls-13{opacity:0.25;}.cls-14{fill:#3e7771;}.cls-14,.cls-19,.cls-26{opacity:0.75;}.cls-15{fill:url(#Dégradé_sans_nom_58);}.cls-16{fill:#e5b7d6;}.cls-17{fill:none;stroke:#e5e5e5;stroke-miterlimit:10;}.cls-18{fill:#2c5450;}.cls-20{fill:#8a6592;}.cls-21{fill:#e2abef;}.cls-22{fill:#ffb8b3;}.cls-23{fill:#bf6a66;}.cls-24{fill:#a55a58;}.cls-25{fill:url(#Dégradé_sans_nom_54-2);}.cls-27{opacity:0.5;}.cls-28{fill:url(#Dégradé_sans_nom_58-2);}</style><linearGradient id="Dégradé_sans_nom_8" y1="540" x2="1920" y2="540" gradientUnits="userSpaceOnUse"><stop offset="0" stop-color="#4c938e"/><stop offset="1" stop-color="#bf6a66"/></linearGradient><linearGradient id="Dégradé_sans_nom_54" x1="1416.91" y1="551.99" x2="1422.8" y2="551.99" gradientUnits="userSpaceOnUse"><stop offset="0.19" stop-color="#9e9e9d"/><stop offset="0.22" stop-color="#a3a3a2"/><stop offset="0.46" stop-color="#cbcbca"/><stop offset="0.67" stop-color="#e7e7e7"/><stop offset="0.86" stop-color="#f9f9f9"/><stop offset="1" stop-color="#fff"/></linearGradient><linearGradient id="Dégradé_sans_nom_58" x1="944.38" y1="-135.46" x2="950.26" y2="-135.46" gradientTransform="translate(325.67 363.93)" gradientUnits="userSpaceOnUse"><stop offset="1" stop-color="#1c191b"/><stop offset="1" stop-color="#717070"/><stop offset="1" stop-color="#a5a5a4"/><stop offset="1" stop-color="#cbcbca"/><stop offset="1" stop-color="#e7e7e7"/><stop offset="1" stop-color="#f9f9f9"/><stop offset="1" stop-color="#fff"/></linearGradient><linearGradient id="Dégradé_sans_nom_54-2" x1="775.16" y1="838.32" x2="781.04" y2="838.32" xlink:href="#Dégradé_sans_nom_54"/><linearGradient id="Dégradé_sans_nom_58-2" x1="570.75" y1="414.69" x2="576.63" y2="414.69" gradientTransform="translate(46.08 -61.4)" xlink:href="#Dégradé_sans_nom_58"/></defs><g id="Bcg"><rect class="cls-1" width="1920" height="1080"/></g><g id="pink"><polygon class="cls-2" points="1019.44 472.46 1357.5 667.65 1357.5 570.06 1188.47 472.46 1188.47 374.86 1357.5 472.46 1357.5 374.86 1019.44 179.67 1019.44 472.46"/><polygon class="cls-3" points="1188.47 472.46 1216.64 456.19 1385.67 553.79 1357.5 570.06 1188.47 472.46"/><polygon class="cls-4" points="1385.67 553.79 1357.5 570.06 1357.5 667.65 1554.7 553.79 1554.7 456.19 1526.53 472.46 1526.53 537.52 1385.67 618.86 1385.67 553.79"/><polygon class="cls-4" points="1357.5 374.86 1554.7 261 1554.7 358.6 1357.5 472.46 1357.5 374.86"/><path class="cls-3" d="M1216.64,65.8l-197.2,113.87L1357.5,374.86,1554.7,261ZM1075.79,179.67l140.85-81.33L1498.36,261,1357.5,342.33Z"/><polygon class="cls-2" points="1216.64 98.33 1216.64 130.87 1470.19 277.26 1498.36 261 1216.64 98.33"/><polygon class="cls-4" points="1216.64 130.87 1103.96 195.93 1075.79 179.67 1216.64 98.33 1216.64 130.87"/><polygon class="cls-5" points="1216.64 130.87 1470.19 277.26 1357.5 342.33 1103.96 195.93 1216.64 130.87"/><polygon class="cls-5" points="1216.64 391.13 1216.64 456.19 1188.47 472.46 1188.47 374.86 1216.64 391.13"/><polygon class="cls-3" points="1526.53 472.46 1442.02 423.66 1470.19 407.39 1554.7 456.19 1526.53 472.46"/><polygon class="cls-2" points="1526.53 537.52 1526.53 472.46 1442.02 423.66 1385.67 456.19 1526.53 537.52"/><polygon class="cls-5" points="1526.53 537.52 1385.67 618.86 1385.67 553.79 1216.64 456.19 1216.64 391.13 1357.5 472.46 1385.67 456.19 1526.53 537.52"/><polygon class="cls-6" points="1400.36 568.98 1420.1 557.58 1439.39 568.73 1419.88 580.25 1400.36 568.98"/><polygon class="cls-7" points="1216.64 391.13 1216.64 456.19 1244.82 472.46 1244.82 407.39 1216.64 391.13"/><rect class="cls-8" x="1416.91" y="533.79" width="5.89" height="36.41" rx="1.58"/><polygon class="cls-9" points="1188.47 472.46 1216.64 456.19 1287.07 496.86 1258.9 513.13 1188.47 472.46"/><path class="cls-10" d="M1454.08,533.42a13.37,13.37,0,0,1-.08,1.42l0,.22c-1.41,10.49-16.13,18.73-34.09,18.73-18.89,0-34.2-9.12-34.2-20.37,0-.28,0-2.08,0-2.36.75-10.86,15.79-18,34.2-18s33.56,7.52,34.2,18.43C1454.09,531.72,1454.08,533.18,1454.08,533.42Z"/><path class="cls-11" d="M1454.08,530.34a11.6,11.6,0,0,1-.15,1.87c-1.58,10.37-16.22,18.5-34,18.5-18.89,0-34.2-9.12-34.2-20.37S1401,510,1419.88,510,1454.08,519.09,1454.08,530.34Z"/><polygon class="cls-12" points="1216.64 391.13 1216.64 456.19 1366.92 543.49 1452.29 495.04 1451.14 428.93 1478.97 412.46 1470.19 407.39 1357.5 472.46 1216.64 391.13"/><polygon class="cls-2" points="1019.44 472.46 934.93 423.66 934.93 374.86 949.01 383 949.01 415.53 1019.44 456.19 1019.44 472.46"/><polygon class="cls-3" points="949.01 415.53 963.1 407.39 1019.44 439.93 1019.44 456.19 949.01 415.53"/><polygon class="cls-2" points="963.1 407.39 963.1 391.13 1019.44 423.66 1019.44 439.93 963.1 407.39"/><polygon class="cls-3" points="963.1 391.13 977.18 383 1019.44 407.39 1019.44 423.66 963.1 391.13"/><polygon class="cls-2" points="977.18 383 977.18 366.73 1019.44 391.13 1019.44 407.39 977.18 383"/><polygon class="cls-3" points="977.18 366.73 991.27 358.6 1019.44 374.86 1019.44 391.13 977.18 366.73"/><path class="cls-3" d="M991.27,358.6"/><polygon class="cls-2" points="991.27 342.33 991.27 358.6 1019.44 374.86 1019.44 358.6 991.27 342.33"/><polygon class="cls-3" points="991.27 342.33 1005.36 334.2 1019.44 342.33 1019.44 358.6 991.27 342.33"/><polygon class="cls-2" points="1005.36 334.2 1005.36 317.93 1019.44 326.06 1019.44 342.33 1005.36 334.2"/><polygon class="cls-3" points="1005.36 317.93 1019.44 309.8 1019.44 317.93 1019.44 326.06 1005.36 317.93"/><polygon class="cls-5" points="949.01 383 1019.44 293.53 1019.44 309.8 1005.36 317.93 1005.36 334.2 991.27 342.33 991.27 358.6 977.18 366.73 977.18 383 963.1 391.13 963.1 407.39 949.01 415.53 949.01 383"/><polygon class="cls-3" points="934.93 374.86 1019.44 267.5 1019.44 293.53 949.01 383 934.93 374.86"/><polygon class="cls-13" points="1019.44 456.19 977.18 383 977.18 347.21 970.14 330.13 1019.44 267.5 1019.44 456.19"/><polygon class="cls-10" points="1400.36 571.18 1400.36 568.98 1419.88 580.25 1439.39 568.73 1439.39 570.81 1419.88 582.71 1400.36 571.18"/><polyline class="cls-5" points="1526.53 472.46 1385.67 553.79 1380.34 550.71 1522.61 470.19"/><polygon class="cls-14" points="1526.53 472.55 1526.53 537.52 1385.67 618.86 1385.67 553.79 1526.53 472.55"/><polygon class="cls-2" points="1284.23 254.45 1312.4 238.19 1354.65 262.59 1329.33 280.75 1284.23 254.45"/><rect class="cls-15" x="1270.04" y="210.26" width="5.89" height="36.41" rx="1.58" transform="translate(534.4 -833.22) rotate(45)"/><polygon class="cls-2" points="1284.23 254.45 1256.27 213.79 1284.23 197.52 1312.4 238.19 1284.23 254.45"/><path class="cls-3" d="M1287.07,252.86l28.17-16.26L1357.5,261s-26.74,17.59-28.17,16.26S1287.07,252.86,1287.07,252.86Z"/><polygon class="cls-3" points="1287.07 252.87 1259.12 212.2 1287.07 195.93 1315.24 236.6 1287.07 252.87"/><polygon class="cls-16" points="1329.33 277.26 1329.33 280.75 1357.5 264.11 1357.5 261 1329.33 277.26"/><polygon class="cls-17" points="1067.92 411.93 1097.62 429.89 1097.62 322.4 1067.92 304.45 1067.92 411.93"/><polygon class="cls-3" points="1097.62 429.89 1097.62 420 1075.79 407.39 1067.92 411.93 1097.62 429.89"/><polygon class="cls-5" points="1075.79 407.39 1075.79 309.2 1067.92 304.45 1067.92 411.93 1075.79 407.39"/><polygon class="cls-18" points="1075.79 309.2 1097.62 322.4 1097.62 420 1075.79 407.39 1075.79 309.2"/><polygon class="cls-19" points="1067.92 304.45 1067.92 358.6 1097.62 374.46 1097.62 322.4 1067.92 304.45"/></g><g id="other"><polygon class="cls-20" points="377.69 758.79 715.75 953.98 715.75 856.38 546.72 758.79 546.72 661.19 715.75 758.79 715.75 501.43 377.69 306.23 377.69 758.79"/><polygon class="cls-21" points="546.72 758.79 574.89 742.52 743.92 840.12 715.75 856.38 546.72 758.79"/><polygon class="cls-22" points="743.92 840.12 715.75 856.38 715.75 953.98 912.95 840.12 912.95 742.52 884.78 758.79 884.78 823.85 743.92 905.18 743.92 840.12"/><polygon class="cls-22" points="715.75 501.43 912.95 387.56 912.95 644.92 715.75 758.79 715.75 501.43"/><path class="cls-21" d="M574.89,192.37,377.69,306.23l338.06,195.2L913,387.56ZM434,306.23,574.89,224.9,854,387.56,715.75,468.89Z"/><polygon class="cls-20" points="572.25 222.48 572.25 257.43 825.79 403.83 853.97 387.56 572.25 222.48"/><polygon class="cls-22" points="572.25 257.43 458.5 323.09 430.33 306.82 572.25 222.48 572.25 257.43"/><polygon class="cls-23" points="572.25 257.43 825.79 403.83 715.75 468.89 459.56 322.5 572.25 257.43"/><polygon class="cls-23" points="574.89 677.46 574.89 742.52 546.72 758.79 546.72 661.19 574.89 677.46"/><polygon class="cls-21" points="884.78 758.79 800.26 709.99 828.43 693.72 912.95 742.52 884.78 758.79"/><polygon class="cls-20" points="884.78 823.85 884.78 758.79 800.26 709.99 743.92 742.52 884.78 823.85"/><polygon class="cls-23" points="884.78 823.85 743.92 905.18 743.92 840.12 574.89 742.52 574.89 677.46 715.75 758.79 743.92 742.52 884.78 823.85"/><polygon class="cls-6" points="758.61 855.3 778.35 843.91 797.64 855.06 778.12 866.57 758.61 855.3"/><polygon class="cls-24" points="574.89 677.46 574.89 742.52 603.06 758.79 603.06 693.72 574.89 677.46"/><rect class="cls-25" x="775.16" y="820.11" width="5.89" height="36.41" rx="1.58"/><polygon class="cls-9" points="546.72 758.79 574.89 742.52 645.32 783.19 617.15 799.45 546.72 758.79"/><path class="cls-10" d="M812.32,819.75a13.37,13.37,0,0,1-.08,1.42l0,.22c-1.4,10.48-16.13,18.73-34.09,18.73-18.88,0-34.19-9.12-34.19-20.37,0-.29,0-2.08,0-2.37.74-10.85,15.78-18,34.19-18s33.56,7.52,34.2,18.43C812.34,818.05,812.32,819.51,812.32,819.75Z"/><path class="cls-11" d="M812.32,816.67a13,13,0,0,1-.14,1.87C810.59,828.91,796,837,778.12,837c-18.88,0-34.19-9.12-34.19-20.37s15.31-20.37,34.19-20.37S812.32,805.42,812.32,816.67Z"/><polygon class="cls-12" points="574.89 677.46 574.89 742.52 725.16 829.81 810.53 781.37 809.39 715.26 837.21 698.79 828.43 693.72 715.75 758.79 574.89 677.46"/><polygon class="cls-20" points="377.69 758.79 293.17 709.99 293.17 661.19 307.26 669.32 307.26 701.86 377.69 742.52 377.69 758.79"/><polygon class="cls-21" points="307.26 701.86 321.34 693.72 377.69 726.25 377.69 742.52 307.26 701.86"/><polygon class="cls-20" points="321.34 693.72 321.34 677.46 377.69 709.99 377.69 726.25 321.34 693.72"/><polygon class="cls-21" points="321.34 677.46 335.43 669.32 377.69 693.72 377.69 709.99 321.34 677.46"/><polygon class="cls-20" points="335.43 669.32 335.43 653.06 377.69 677.46 377.69 693.72 335.43 669.32"/><polygon class="cls-21" points="335.43 653.06 349.52 644.92 377.69 661.19 377.69 677.46 335.43 653.06"/><path class="cls-3" d="M349.52,644.92"/><polygon class="cls-20" points="349.52 628.66 349.52 644.92 377.69 661.19 377.69 644.92 349.52 628.66"/><polygon class="cls-21" points="349.52 628.66 363.6 620.52 377.69 628.66 377.69 644.92 349.52 628.66"/><polygon class="cls-20" points="363.6 620.52 363.6 604.26 377.69 612.39 377.69 628.66 363.6 620.52"/><polygon class="cls-21" points="363.6 604.26 377.69 596.13 377.69 604.26 377.69 612.39 363.6 604.26"/><polygon class="cls-20" points="307.26 669.32 377.69 579.86 377.69 596.13 363.6 604.26 363.6 620.52 349.52 628.66 349.52 644.92 335.43 653.06 335.43 669.32 321.34 677.46 321.34 693.72 307.26 701.86 307.26 669.32"/><polygon class="cls-21" points="293.17 661.19 377.69 553.83 377.69 579.86 307.26 669.32 293.17 661.19"/><polygon class="cls-13" points="377.69 742.52 335.43 669.32 335.43 633.54 328.39 616.46 377.69 553.83 377.69 742.52"/><polygon class="cls-10" points="758.61 857.51 758.61 855.3 778.12 866.57 797.64 855.06 797.64 857.14 778.12 869.03 758.61 857.51"/><polyline class="cls-23" points="884.78 758.79 743.92 840.12 738.58 837.04 880.85 756.52"/><g class="cls-26"><polygon class="cls-23" points="884.78 758.87 884.78 823.85 743.92 905.18 743.92 840.12 884.78 758.87"/></g><g id="fenetre"><polygon class="cls-17" points="426.17 698.26 455.86 716.22 455.86 608.73 426.17 590.78 426.17 698.26"/><polygon class="cls-3" points="455.86 716.22 455.86 706.33 434.03 693.72 426.17 698.26 455.86 716.22"/><polygon class="cls-23" points="434.03 693.72 434.03 595.53 426.17 590.78 426.17 698.26 434.03 693.72"/><polygon class="cls-24" points="434.03 595.53 455.86 608.73 455.86 706.33 434.03 693.72 434.03 595.53"/><polygon class="cls-27" points="426.17 590.78 426.17 644.92 455.86 660.79 455.86 608.73 426.17 590.78"/></g><g id="fentre_haute" data-name="fentre haute"><polygon class="cls-17" points="430.1 505.38 459.79 523.33 459.79 415.85 430.1 397.89 430.1 505.38"/><polygon class="cls-3" points="459.79 523.33 459.79 513.45 437.96 500.84 430.1 505.38 459.79 523.33"/><polygon class="cls-23" points="437.96 500.84 437.96 402.65 430.1 397.89 430.1 505.38 437.96 500.84"/><polygon class="cls-24" points="437.96 402.65 459.79 415.85 459.79 513.45 437.96 500.84 437.96 402.65"/><polygon class="cls-27" points="430.1 397.89 430.1 452.04 459.79 467.91 459.79 415.85 430.1 397.89"/></g><g id="Calque_7" data-name="Calque 7"><polygon class="cls-17" points="616.17 612.96 645.86 630.91 645.86 523.43 616.17 505.47 616.17 612.96"/><polygon class="cls-3" points="645.86 630.91 645.86 621.02 624.03 608.42 616.17 612.96 645.86 630.91"/><polygon class="cls-23" points="624.03 608.42 624.03 510.23 616.17 505.47 616.17 612.96 624.03 608.42"/><polygon class="cls-24" points="624.03 510.23 645.86 523.43 645.86 621.02 624.03 608.42 624.03 510.23"/><polygon class="cls-27" points="616.17 505.47 616.17 559.62 645.86 575.49 645.86 523.43 616.17 505.47"/></g><g id="chaise"><polygon class="cls-20" points="631.02 379.27 659.19 363.01 701.45 387.41 676.12 405.57 631.02 379.27"/><rect class="cls-28" x="616.83" y="335.08" width="5.89" height="36.41" rx="1.58" transform="translate(431.34 -334.77) rotate(45)"/><polygon class="cls-20" points="631.02 379.27 603.06 338.61 631.02 322.34 659.19 363.01 631.02 379.27"/><path class="cls-21" d="M633.86,377.68,662,361.42l42.26,24.4s-26.74,17.59-28.17,16.26S633.86,377.68,633.86,377.68Z"/><polygon class="cls-21" points="633.86 377.69 605.91 337.02 633.86 320.75 662.03 361.42 633.86 377.69"/><polygon class="cls-16" points="676.12 402.08 676.12 405.57 704.29 388.93 704.29 385.82 676.12 402.08"/></g></g></svg>